<?xml version="1.0" encoding="UTF-8" standalone="no"?>
<!DOCTYPE svg PUBLIC "-//W3C//DTD SVG 1.1//EN"
 "http://www.w3.org/Graphics/SVG/1.1/DTD/svg11.dtd">
<!-- Generated by graphviz version 2.40.1 (20161225.0304)
 -->
<!-- Title: TC Pages: 1 -->
<svg width="244pt" height="465pt"
 viewBox="0.00 0.00 243.64 465.00" xmlns="http://www.w3.org/2000/svg" xmlns:xlink="http://www.w3.org/1999/xlink">
<g id="graph0" class="graph" transform="scale(1 1) rotate(0) translate(4 461)">
<title>TC</title>
<polygon fill="#ffffff" stroke="transparent" points="-4,4 -4,-461 239.643,-461 239.643,4 -4,4"/>
<!-- code.asm -->
<g id="node1" class="node">
<title>code.asm</title>
<g id="a_node1"><a xlink:href="./code.asm" xlink:title="code.asm">
<ellipse fill="#cae1ff" stroke="#000000" cx="44.1961" cy="-265" rx="44.393" ry="18"/>
<text text-anchor="middle" x="44.1961" y="-261.3" font-family="Times,serif" font-size="14.00" fill="#000000">code.asm</text>
</a>
</g>
</g>
<!-- code.hex -->
<g id="node2" class="node">
<title>code.hex</title>
<ellipse fill="none" stroke="#000000" cx="101.1961" cy="-178" rx="42.4939" ry="18"/>
<text text-anchor="middle" x="101.1961" y="-174.3" font-family="Times,serif" font-size="14.00" fill="#000000">code.hex</text>
</g>
<!-- code.asm&#45;&gt;code.hex -->
<g id="edge1" class="edge">
<title>code.asm&#45;&gt;code.hex</title>
<path fill="none" stroke="#000000" d="M40.5492,-246.9217C39.417,-236.6456 39.667,-223.8956 45.1961,-214 49.16,-206.9057 55.1709,-200.9927 61.8054,-196.1472"/>
<polygon fill="#000000" stroke="#000000" points="63.935,-198.9383 70.4354,-190.572 60.1365,-193.0585 63.935,-198.9383"/>
<text text-anchor="middle" x="90.6961" y="-217.8" font-family="Times,serif" font-size="14.00" fill="#000000">avra &#45;o code.hex</text>
</g>
<!-- FTDI USP to Serial -->
<g id="node7" class="node">
<title>FTDI USP to Serial</title>
<polygon fill="none" stroke="#000000" points="163.6961,-109 38.6961,-109 38.6961,-73 163.6961,-73 163.6961,-109"/>
<text text-anchor="middle" x="101.1961" y="-87.3" font-family="Times,serif" font-size="14.00" fill="#000000">FTDI USP to Serial</text>
</g>
<!-- code.hex&#45;&gt;FTDI USP to Serial -->
<g id="edge6" class="edge">
<title>code.hex&#45;&gt;FTDI USP to Serial</title>
<path fill="none" stroke="#000000" d="M101.1961,-159.9735C101.1961,-148.1918 101.1961,-132.5607 101.1961,-119.1581"/>
<polygon fill="#000000" stroke="#000000" points="104.6962,-119.0033 101.1961,-109.0034 97.6962,-119.0034 104.6962,-119.0033"/>
<text text-anchor="middle" x="123.1961" y="-130.8" font-family="Times,serif" font-size="14.00" fill="#000000">avrdude</text>
</g>
<!-- code.c -->
<g id="node3" class="node">
<title>code.c</title>
<g id="a_node3"><a xlink:href="./code.c" xlink:title="code.c">
<ellipse fill="#ffffe0" stroke="#000000" cx="115.1961" cy="-439" rx="33.5952" ry="18"/>
<text text-anchor="middle" x="115.1961" y="-435.3" font-family="Times,serif" font-size="14.00" fill="#000000">code.c</text>
</a>
</g>
</g>
<!-- code.o -->
<g id="node4" class="node">
<title>code.o</title>
<ellipse fill="none" stroke="#000000" cx="158.1961" cy="-352" rx="34.394" ry="18"/>
<text text-anchor="middle" x="158.1961" y="-348.3" font-family="Times,serif" font-size="14.00" fill="#000000">code.o</text>
</g>
<!-- code.c&#45;&gt;code.o -->
<g id="edge2" class="edge">
<title>code.c&#45;&gt;code.o</title>
<path fill="none" stroke="#000000" d="M122.7168,-421.3633C127.0464,-411.4623 132.704,-398.9367 138.1961,-388 139.7843,-384.8373 141.5061,-381.5517 143.2504,-378.3089"/>
<polygon fill="#000000" stroke="#000000" points="146.3857,-379.871 148.1338,-369.4213 140.2508,-376.5 146.3857,-379.871"/>
<text text-anchor="middle" x="158.6961" y="-391.8" font-family="Times,serif" font-size="14.00" fill="#000000">avr&#45;gcc</text>
</g>
<!-- code.elf -->
<g id="node6" class="node">
<title>code.elf</title>
<ellipse fill="none" stroke="#000000" cx="158.1961" cy="-265" rx="38.9931" ry="18"/>
<text text-anchor="middle" x="158.1961" y="-261.3" font-family="Times,serif" font-size="14.00" fill="#000000">code.elf</text>
</g>
<!-- code.o&#45;&gt;code.elf -->
<g id="edge4" class="edge">
<title>code.o&#45;&gt;code.elf</title>
<path fill="none" stroke="#000000" d="M158.1961,-333.9735C158.1961,-322.1918 158.1961,-306.5607 158.1961,-293.1581"/>
<polygon fill="#000000" stroke="#000000" points="161.6962,-293.0033 158.1961,-283.0034 154.6962,-293.0034 161.6962,-293.0033"/>
<text text-anchor="middle" x="178.6961" y="-304.8" font-family="Times,serif" font-size="14.00" fill="#000000">avr&#45;gcc</text>
</g>
<!-- code.S -->
<g id="node5" class="node">
<title>code.S</title>
<g id="a_node5"><a xlink:href="./code.S" xlink:title="code.S">
<ellipse fill="#ff8c69" stroke="#000000" cx="201.1961" cy="-439" rx="34.394" ry="18"/>
<text text-anchor="middle" x="201.1961" y="-435.3" font-family="Times,serif" font-size="14.00" fill="#000000">code.S</text>
</a>
</g>
</g>
<!-- code.S&#45;&gt;code.o -->
<g id="edge3" class="edge">
<title>code.S&#45;&gt;code.o</title>
<path fill="none" stroke="#000000" d="M194.1756,-421.2926C190.0884,-411.3695 184.6733,-398.8454 179.1961,-388 177.5815,-384.8029 175.8061,-381.4963 173.9925,-378.2419"/>
<polygon fill="#000000" stroke="#000000" points="176.8973,-376.2719 168.882,-369.3433 170.8271,-379.7581 176.8973,-376.2719"/>
<text text-anchor="middle" x="202.1961" y="-391.8" font-family="Times,serif" font-size="14.00" fill="#000000">avr&#45;as</text>
</g>
<!-- code.elf&#45;&gt;code.hex -->
<g id="edge5" class="edge">
<title>code.elf&#45;&gt;code.hex</title>
<path fill="none" stroke="#000000" d="M152.3409,-247.1958C148.5558,-237.0111 143.0558,-224.2611 136.1961,-214 133.4347,-209.8694 130.1678,-205.7934 126.7574,-201.9526"/>
<polygon fill="#000000" stroke="#000000" points="129.0847,-199.3195 119.6717,-194.4568 123.9978,-204.1282 129.0847,-199.3195"/>
<text text-anchor="middle" x="182.6961" y="-217.8" font-family="Times,serif" font-size="14.00" fill="#000000">avr&#45;objcompy</text>
</g>
<!-- ICSP Programmer -->
<g id="node8" class="node">
<title>ICSP Programmer</title>
<polygon fill="#b0e2ff" stroke="#000000" points="160.1961,-36 42.1961,-36 42.1961,0 160.1961,0 160.1961,-36"/>
<text text-anchor="middle" x="101.1961" y="-14.3" font-family="Times,serif" font-size="14.00" fill="#000000">ICSP Programmer</text>
</g>
<!-- FTDI USP to Serial&#45;&gt;ICSP Programmer -->
<g id="edge7" class="edge">
<title>FTDI USP to Serial&#45;&gt;ICSP Programmer</title>
<path fill="none" stroke="#000000" d="M101.1961,-72.9551C101.1961,-64.8828 101.1961,-55.1764 101.1961,-46.1817"/>
<polygon fill="#000000" stroke="#000000" points="104.6962,-46.0903 101.1961,-36.0904 97.6962,-46.0904 104.6962,-46.0903"/>
</g>
</g>
</svg>
